<svg version="1.1" xmlns="http://www.w3.org/2000/svg" viewBox="0 0 111 96" width="111" height="96" class="excalidraw-svg"><!-- svg-source:excalidraw --><metadata></metadata><defs><style class="style-fonts">
      </style></defs><rect x="0" y="0" width="111" height="96" fill="#ffffff"></rect><g stroke-linecap="round" transform="translate(10 10) rotate(0 45.5 38)"><path d="M53.27 -0.13 C60.9 0.76, 70.53 5.87, 76.57 10.85 C82.6 15.83, 87.63 23.06, 89.49 29.75 C91.34 36.45, 90.22 44.64, 87.68 51.02 C85.14 57.41, 80.59 63.93, 74.25 68.07 C67.91 72.2, 57.81 75.17, 49.64 75.84 C41.48 76.52, 32.36 75.3, 25.25 72.11 C18.14 68.92, 11.22 62.62, 6.98 56.71 C2.74 50.8, -0.34 43.25, -0.19 36.63 C-0.04 30.02, 3.02 22.7, 7.88 17 C12.73 11.3, 20.81 4.91, 28.95 2.43 C37.09 -0.04, 51.49 2, 56.7 2.15 C61.92 2.29, 60.48 2.77, 60.23 3.31 M58.22 2.93 C65.79 4.09, 74.65 7.21, 80.02 12.36 C85.38 17.52, 89.28 26.85, 90.39 33.86 C91.49 40.87, 89.96 48.61, 86.64 54.44 C83.32 60.27, 77.12 65.29, 70.47 68.83 C63.82 72.37, 55.24 75.69, 46.77 75.66 C38.3 75.63, 26.75 72.05, 19.65 68.63 C12.55 65.22, 7.35 61.05, 4.16 55.16 C0.97 49.28, -0.89 40.14, 0.52 33.32 C1.93 26.5, 7.14 19.71, 12.61 14.24 C18.07 8.78, 25.45 2.52, 33.33 0.55 C41.21 -1.43, 55.97 1.99, 59.89 2.4 C63.82 2.82, 57.27 2.81, 56.89 3.05" stroke="none" stroke-width="0" fill="#ffec99"></path><path d="M64.63 3.63 C71.95 5.81, 79.06 12.17, 83.29 18.03 C87.53 23.89, 90.09 31.84, 90.04 38.77 C89.98 45.7, 87.18 53.86, 82.96 59.59 C78.75 65.32, 72.25 70.48, 64.75 73.15 C57.25 75.81, 46.07 76.54, 37.94 75.56 C29.81 74.58, 21.85 71.89, 15.97 67.25 C10.08 62.6, 4.83 54.57, 2.63 47.68 C0.44 40.79, 0.4 32.31, 2.82 25.91 C5.23 19.5, 11.1 13.47, 17.13 9.22 C23.15 4.98, 30.84 1.09, 38.97 0.45 C47.1 -0.18, 61.11 4.55, 65.92 5.42 C70.73 6.28, 67.92 5.18, 67.82 5.62 M65.39 3.15 C72.68 5.66, 78.88 11.75, 82.94 17.66 C86.99 23.57, 89.75 31.65, 89.71 38.62 C89.67 45.59, 86.85 54, 82.7 59.48 C78.54 64.97, 72.37 68.95, 64.8 71.52 C57.23 74.1, 45.33 75.73, 37.28 74.94 C29.22 74.15, 22.61 71.4, 16.45 66.79 C10.3 62.18, 2.59 54.01, 0.37 47.28 C-1.84 40.56, 0.41 32.61, 3.15 26.44 C5.89 20.27, 10.83 14.64, 16.83 10.25 C22.84 5.86, 31.1 1.31, 39.16 0.1 C47.21 -1.11, 60.88 2.41, 65.17 3.01 C69.45 3.61, 65.15 2.93, 64.85 3.68" stroke="#1971c2" stroke-width="2" fill="none"></path></g></svg>