<svg version="1.1" xmlns="http://www.w3.org/2000/svg" viewBox="0 0 282 291" width="282" height="291" class="excalidraw-svg"><!-- svg-source:excalidraw --><metadata></metadata><defs><style class="style-fonts">
      </style></defs><rect x="0" y="0" width="282" height="291" fill="#ffffff"></rect><g stroke-linecap="round" transform="translate(10 10) rotate(0 131 135.5)"><path d="M121.97 0.97 C135.19 -1.91, 151.87 1.39, 165.53 5.21 C179.2 9.04, 192.32 15.84, 203.96 23.9 C215.6 31.96, 226.62 41.92, 235.38 53.58 C244.14 65.25, 252.06 79.78, 256.52 93.89 C260.98 108, 262.66 123.59, 262.12 138.23 C261.59 152.87, 258.21 168.08, 253.32 181.72 C248.42 195.36, 241.54 208.77, 232.76 220.07 C223.98 231.37, 212.51 241.58, 200.64 249.52 C188.76 257.45, 175.28 264.38, 161.53 267.7 C147.78 271.01, 132.41 270.82, 118.12 269.39 C103.83 267.96, 88.77 264.92, 75.79 259.13 C62.82 253.34, 50.54 244.98, 40.28 234.65 C30.01 224.32, 20.78 210.19, 14.2 197.14 C7.62 184.1, 2.71 170.78, 0.78 156.37 C-1.14 141.97, -0.18 125.1, 2.64 110.69 C5.46 96.27, 10.75 82.48, 17.69 69.89 C24.63 57.31, 34 45.15, 44.29 35.16 C54.59 25.16, 65.58 15.84, 79.48 9.92 C93.37 4, 118.85 0.92, 127.66 -0.37 C136.48 -1.67, 132.31 -0.21, 132.38 2.15 M187.65 14.87 C200.71 19.13, 213.54 30.54, 223.87 40.64 C234.21 50.74, 243.58 62.64, 249.65 75.47 C255.73 88.3, 258.66 102.76, 260.33 117.6 C262 132.44, 262.37 149.76, 259.68 164.5 C256.99 179.24, 251.53 193.43, 244.18 206.03 C236.84 218.64, 226.81 230.65, 215.59 240.14 C204.38 249.62, 190.23 257.57, 176.88 262.93 C163.52 268.28, 149.46 271.64, 135.48 272.25 C121.51 272.86, 106.54 271.08, 93.03 266.59 C79.51 262.1, 66.01 254.21, 54.4 245.32 C42.79 236.43, 31.47 225.04, 23.36 213.25 C15.25 201.46, 9.77 188.76, 5.73 174.57 C1.69 160.39, -1.32 143.05, -0.9 128.12 C-0.48 113.19, 2.73 98.23, 8.24 85.01 C13.75 71.79, 22.73 59.96, 32.15 48.81 C41.57 37.66, 52.91 25.78, 64.77 18.12 C76.64 10.45, 89.74 5.85, 103.35 2.79 C116.97 -0.27, 132.42 -2.36, 146.45 -0.27 C160.47 1.82, 180.45 12.79, 187.5 15.35 C194.55 17.9, 189.33 13.32, 188.76 15.07" stroke="#1e1e1e" stroke-width="2" fill="none"></path></g></svg>