<svg version="1.1" xmlns="http://www.w3.org/2000/svg" viewBox="0 0 318 300" width="318" height="300" class="excalidraw-svg"><!-- svg-source:excalidraw --><metadata></metadata><defs><style class="style-fonts">
      </style></defs><rect x="0" y="0" width="318" height="300" fill="#ffffff"></rect><g stroke-linecap="round" transform="translate(10 10) rotate(0 149 140)"><path d="M32 0 C104.87 -0.26, 174.96 2.84, 266 0 C285.62 1.54, 299.37 10.76, 298 32 C295.92 90.11, 296.97 147.56, 298 248 C299.29 268.06, 286.15 276.88, 266 280 C219.11 279.69, 171.09 279.28, 32 280 C8.65 282.42, -1.45 271.69, 0 248 C-0.62 174.05, -1.03 101.45, 0 32 C1.73 12.52, 7.53 2.42, 32 0" stroke="none" stroke-width="0" fill="#a5d8ff"></path><path d="M32 0 C81.56 0.47, 129.58 0.54, 266 0 M32 0 C98.52 1.34, 164.03 0.11, 266 0 M266 0 C286.2 -1.2, 299.19 12.21, 298 32 M266 0 C288.15 -1.23, 296.31 10.63, 298 32 M298 32 C297.95 82.22, 294.8 131.1, 298 248 M298 32 C299.32 93.46, 299.81 155.29, 298 248 M298 248 C296.55 269.45, 285.73 280.06, 266 280 M298 248 C298.99 270.55, 285.48 280.62, 266 280 M266 280 C207.49 280.23, 144.48 280.96, 32 280 M266 280 C180.08 278.34, 93.47 278.48, 32 280 M32 280 C8.96 279.38, 1.93 268.57, 0 248 M32 280 C10.64 278.6, 0.59 269.99, 0 248 M0 248 C-1.16 202.22, -1.57 154.73, 0 32 M0 248 C-0.2 195.34, -0.71 144.1, 0 32 M0 32 C0.67 11.12, 10.25 1.27, 32 0 M0 32 C0.54 8.59, 12.29 1.84, 32 0" stroke="#e03131" stroke-width="2" fill="none"></path></g></svg>