<svg version="1.1" xmlns="http://www.w3.org/2000/svg" viewBox="0 0 344.87577463833617 257.49347104342655" width="344.87577463833617" height="257.49347104342655" class="excalidraw-svg"><!-- svg-source:excalidraw --><metadata></metadata><defs><style class="style-fonts">
      </style></defs><rect x="0" y="0" width="344.87577463833617" height="257.49347104342655" fill="#ffffff"></rect><g stroke-linecap="round"><g transform="translate(29.37105316860601 9.783405699897571) rotate(0 145 0.5)"><path d="M-0.55 0.83 C47.69 0.9, 241.15 0.86, 289.71 0.76 M1.37 0.22 C49.39 0.45, 240.42 2.01, 288.6 2.17" stroke="#1e1e1e" stroke-width="2" fill="none"></path></g><g transform="translate(29.37105316860601 9.783405699897571) rotate(0 145 0.5)"><path d="M265.06 10.58 C274.08 7.46, 279.95 6.54, 288.6 2.17 M265.06 10.58 C270.18 7.79, 276.93 7.47, 288.6 2.17" stroke="#1e1e1e" stroke-width="2" fill="none"></path></g><g transform="translate(29.37105316860601 9.783405699897571) rotate(0 145 0.5)"><path d="M265.16 -6.52 C274.19 -4.08, 280.03 0.56, 288.6 2.17 M265.16 -6.52 C270.41 -5.27, 277.14 -1.55, 288.6 2.17" stroke="#1e1e1e" stroke-width="2" fill="none"></path></g></g><mask></mask><g stroke-linecap="round"><g transform="translate(10.37105316860601 104.78340569989757) rotate(0 145 0.5)"><path d="M0.71 -1.1 C48.77 -0.81, 241.47 0.86, 289.49 1.26 M-0.37 0.93 C47.39 0.89, 239.69 -1.03, 288.28 -0.72" stroke="#1e1e1e" stroke-width="2" fill="none"></path></g><g transform="translate(10.37105316860601 104.78340569989757) rotate(0 145 0.5)"><path d="M264.81 7.9 C272.27 3.51, 283.81 -0.95, 288.28 -0.72 M264.81 7.9 C271.71 4.82, 280.04 2.1, 288.28 -0.72" stroke="#1e1e1e" stroke-width="2" fill="none"></path></g><g transform="translate(10.37105316860601 104.78340569989757) rotate(0 145 0.5)"><path d="M264.76 -9.21 C272.17 -6.84, 283.72 -4.56, 288.28 -0.72 M264.76 -9.21 C271.52 -6.71, 279.87 -3.85, 288.28 -0.72" stroke="#1e1e1e" stroke-width="2" fill="none"></path></g></g><mask></mask><g stroke-linecap="round"><g transform="translate(43.37105316860601 244.78340569989757) rotate(0 145 0.5)"><path d="M-0.57 0.38 C47.79 0.74, 240.81 0.97, 289.21 1.11 M1.33 -0.46 C50.16 0.2, 243.57 2.19, 291.5 2.71" stroke="#1e1e1e" stroke-width="2" fill="none"></path></g><g transform="translate(43.37105316860601 244.78340569989757) rotate(0 145 0.5)"><path d="M267.92 11.01 C273.77 8, 278.46 7.17, 291.5 2.71 M267.92 11.01 C276.12 8.8, 282.2 5.7, 291.5 2.71" stroke="#1e1e1e" stroke-width="2" fill="none"></path></g><g transform="translate(43.37105316860601 244.78340569989757) rotate(0 145 0.5)"><path d="M268.1 -6.09 C273.77 -5.38, 278.42 -2.48, 291.5 2.71 M268.1 -6.09 C276.1 -2.84, 282.13 -0.47, 291.5 2.71" stroke="#1e1e1e" stroke-width="2" fill="none"></path></g></g><mask></mask></svg>