<svg version="1.1" xmlns="http://www.w3.org/2000/svg" viewBox="0 0 313 406.87109375" width="313" height="406.87109375" class="excalidraw-svg"><!-- svg-source:excalidraw --><metadata></metadata><defs><style class="style-fonts">
      </style></defs><rect x="0" y="0" width="313" height="406.87109375" fill="#ffffff"></rect><g transform="translate(261 10) rotate(0 -104.5 187.5)" stroke="none"><path fill="#1e1e1e" d="M 1.79,2.55 Q 1.79,2.55 -3.99,6.53 -9.78,10.50 -20.19,15.72 -30.60,20.95 -46.52,28.02 -62.43,35.10 -81.82,43.83 -101.21,52.57 -121.00,60.60 -140.79,68.64 -159.54,76.07 -178.30,83.51 -192.27,89.52 -206.24,95.53 -216.98,101.20 -227.71,106.87 -233.51,112.00 -239.30,117.13 -241.96,120.88 -244.62,124.64 -245.50,127.30 -246.38,129.96 -244.51,131.98 -242.65,134.00 -235.80,134.67 -228.95,135.33 -216.92,135.80 -204.89,136.26 -187.39,136.49 -169.89,136.72 -147.94,138.87 -125.98,141.01 -102.23,145.11 -78.48,149.21 -53.40,155.00 -28.33,160.79 -11.08,164.98 6.16,169.17 16.76,172.72 27.36,176.26 30.95,178.31 34.55,180.35 34.84,180.49 35.14,180.63 35.40,180.84 35.65,181.05 35.85,181.31 36.05,181.58 36.18,181.88 36.31,182.19 36.36,182.51 36.42,182.84 36.39,183.17 36.36,183.50 36.26,183.81 36.16,184.12 35.98,184.40 35.80,184.68 35.56,184.91 35.33,185.14 35.04,185.30 34.75,185.47 34.44,185.56 34.12,185.65 33.79,185.67 33.46,185.68 33.14,185.61 32.81,185.55 31.79,187.89 30.76,190.24 22.94,193.90 15.11,197.57 2.34,201.91 -10.42,206.26 -30.78,212.68 -51.13,219.10 -76.19,226.43 -101.24,233.76 -125.10,240.89 -148.95,248.02 -166.00,253.06 -183.05,258.10 -196.65,261.68 -210.26,265.27 -216.88,267.07 -223.50,268.88 -226.18,269.82 -228.87,270.76 -224.96,273.11 -221.06,275.45 -216.65,279.87 -212.23,284.29 -206.17,289.55 -200.11,294.82 -190.68,302.24 -181.24,309.66 -169.28,317.38 -157.32,325.09 -141.64,333.83 -125.95,342.58 -107.64,349.69 -89.33,356.81 -74.72,360.69 -60.11,364.57 -48.19,366.80 -36.27,369.03 -28.94,369.98 -21.61,370.93 -16.70,371.27 -11.79,371.62 -11.30,371.76 -10.81,371.90 -10.39,372.19 -9.97,372.48 -9.67,372.88 -9.36,373.29 -9.20,373.78 -9.05,374.26 -9.05,374.77 -9.05,375.28 -9.22,375.76 -9.39,376.24 -9.70,376.64 -10.01,377.04 -10.43,377.33 -10.86,377.61 -11.35,377.74 -11.84,377.87 -12.35,377.84 -12.86,377.81 -13.33,377.61 -13.80,377.42 -14.18,377.09 -14.57,376.76 -14.83,376.32 -15.09,375.88 -15.19,375.38 -15.30,374.88 -15.24,374.38 -15.18,373.87 -14.96,373.41 -14.74,372.95 -14.39,372.59 -14.04,372.22 -13.58,371.99 -13.13,371.75 -12.63,371.67 -12.13,371.60 -11.62,371.68 -11.12,371.77 -10.68,372.01 -10.23,372.25 -9.88,372.63 -9.53,373.00 -9.32,373.46 -9.12,373.93 -9.06,374.43 -9.01,374.94 -9.13,375.44 -9.24,375.93 -9.51,376.37 -9.77,376.80 -10.17,377.13 -10.56,377.45 -11.03,377.64 -11.51,377.82 -12.01,377.84 -12.52,377.87 -12.52,377.87 -12.52,377.87 -17.41,377.06 -22.29,376.25 -29.78,375.30 -37.26,374.35 -49.39,372.10 -61.51,369.86 -76.42,365.92 -91.34,361.98 -110.01,354.75 -128.69,347.53 -144.57,338.76 -160.45,329.99 -172.69,322.20 -184.94,314.42 -194.57,307.03 -204.20,299.63 -210.54,294.38 -216.87,289.13 -221.33,285.04 -225.78,280.96 -229.11,278.14 -232.43,275.33 -233.33,273.07 -234.22,270.82 -233.08,268.46 -231.95,266.10 -228.42,264.93 -224.90,263.76 -218.26,261.94 -211.62,260.12 -198.09,256.55 -184.56,252.97 -167.53,247.91 -150.50,242.86 -126.63,235.70 -102.77,228.54 -77.78,221.20 -52.79,213.85 -32.52,207.40 -12.24,200.96 0.23,196.66 12.71,192.36 19.66,189.21 26.61,186.06 30.58,183.20 34.55,180.35 34.84,180.49 35.14,180.63 35.40,180.84 35.65,181.05 35.85,181.31 36.05,181.58 36.18,181.88 36.31,182.19 36.36,182.51 36.42,182.84 36.39,183.17 36.36,183.50 36.26,183.81 36.16,184.12 35.98,184.40 35.80,184.68 35.56,184.91 35.33,185.14 35.04,185.30 34.76,185.47 34.44,185.56 34.12,185.65 33.79,185.67 33.46,185.68 33.14,185.61 32.81,185.55 29.22,183.47 25.62,181.39 15.25,177.95 4.87,174.50 -12.35,170.36 -29.58,166.22 -54.51,160.52 -79.44,154.82 -102.99,150.83 -126.54,146.84 -148.24,144.82 -169.95,142.81 -187.52,142.73 -205.09,142.65 -217.40,142.38 -229.71,142.11 -238.21,141.05 -246.71,139.99 -249.63,136.98 -252.56,133.97 -252.29,130.80 -252.02,127.63 -250.47,124.60 -248.93,121.58 -245.88,117.37 -242.82,113.16 -236.53,107.67 -230.23,102.18 -219.30,96.40 -208.36,90.61 -194.33,84.55 -180.29,78.49 -161.57,71.04 -142.85,63.59 -123.17,55.56 -103.48,47.53 -84.11,38.74 -64.73,29.96 -48.97,22.87 -33.21,15.79 -23.21,10.69 -13.21,5.59 -7.50,1.51 -1.79,-2.55 -1.45,-2.73 -1.12,-2.91 -0.76,-3.00 -0.39,-3.09 -0.02,-3.10 0.35,-3.10 0.72,-3.01 1.08,-2.92 1.42,-2.75 1.75,-2.58 2.04,-2.33 2.32,-2.08 2.54,-1.77 2.75,-1.46 2.89,-1.11 3.02,-0.76 3.07,-0.39 3.12,-0.02 3.08,0.35 3.03,0.72 2.90,1.08 2.77,1.43 2.56,1.74 2.35,2.05 2.07,2.30 1.79,2.55 1.79,2.55 L 1.79,2.55 Z"></path></g><g transform="translate(112.1875 41.37109375) rotate(0 27 177.75)" stroke="none"><path fill="#1e1e1e" d="M 3.77,-0.29 Q 3.77,-0.29 4.02,3.44 4.28,7.19 4.26,13.63 4.24,20.07 4.18,24.35 4.13,28.64 4.49,33.35 4.86,38.06 5.28,43.29 5.71,48.51 6.43,53.37 7.16,58.24 7.88,61.73 8.60,65.23 9.45,67.88 10.30,70.53 10.93,73.26 11.56,75.99 12.16,79.21 12.76,82.42 12.98,86.08 13.20,89.74 12.52,92.13 11.84,94.52 10.23,97.60 8.61,100.67 7.01,104.12 5.41,107.57 3.23,112.02 1.05,116.47 -1.21,121.57 -3.48,126.67 -6.58,132.42 -9.68,138.17 -13.70,147.06 -17.72,155.94 -21.89,166.44 -26.07,176.94 -29.56,187.94 -33.06,198.94 -35.27,208.43 -37.48,217.92 -38.86,225.11 -40.24,232.30 -41.12,238.05 -42.00,243.81 -42.52,248.66 -43.04,253.51 -43.23,257.55 -43.42,261.58 -43.65,265.00 -43.88,268.43 -44.19,271.63 -44.50,274.83 -44.65,277.46 -44.81,280.08 -45.11,282.73 -45.41,285.38 -45.49,288.13 -45.57,290.88 -45.02,294.10 -44.46,297.32 -43.40,299.33 -42.33,301.34 -39.66,303.72 -36.99,306.09 -34.57,309.33 -32.15,312.57 -30.05,317.39 -27.94,322.21 -25.87,326.65 -23.80,331.09 -21.47,335.24 -19.13,339.39 -17.19,342.43 -15.25,345.47 -13.80,347.13 -12.34,348.79 -8.93,345.97 -5.52,343.15 -2.60,338.87 0.31,334.59 6.11,325.03 11.91,315.46 17.67,303.50 23.44,291.53 28.51,278.60 33.57,265.68 38.22,253.27 42.86,240.86 46.86,229.57 50.87,218.28 54.75,207.43 58.63,196.59 62.15,185.84 65.66,175.09 69.04,164.20 72.41,153.32 75.13,143.27 77.85,133.22 81.33,121.70 84.81,110.19 86.71,103.33 88.61,96.47 90.59,90.46 92.57,84.46 94.25,78.12 95.93,71.79 97.23,67.05 98.53,62.30 99.18,59.22 99.82,56.15 99.92,54.00 100.02,51.84 99.88,49.22 99.74,46.60 99.43,43.37 99.13,40.14 97.99,37.13 96.84,34.11 96.62,33.28 96.40,32.45 96.45,31.59 96.50,30.74 96.82,29.94 97.15,29.14 97.71,28.49 98.27,27.84 99.01,27.40 99.75,26.96 100.59,26.78 101.43,26.60 102.29,26.70 103.14,26.80 103.92,27.17 104.70,27.53 105.32,28.13 105.94,28.73 106.34,29.49 106.74,30.25 106.87,31.10 107.00,31.95 106.86,32.80 106.71,33.65 106.30,34.40 105.90,35.16 105.27,35.75 104.64,36.34 103.85,36.69 103.07,37.05 102.22,37.13 101.36,37.22 100.52,37.03 99.68,36.84 98.95,36.39 98.21,35.94 97.66,35.28 97.11,34.62 96.80,33.82 96.48,33.02 96.44,32.16 96.40,31.30 96.64,30.47 96.88,29.65 97.36,28.94 97.85,28.23 98.54,27.71 99.23,27.20 100.05,26.93 100.86,26.66 101.72,26.67 102.58,26.67 103.40,26.95 104.21,27.23 104.89,27.76 105.57,28.28 106.05,29.00 106.53,29.72 106.53,29.71 106.53,29.71 107.49,32.16 108.45,34.60 108.65,37.38 108.85,40.16 108.46,43.60 108.06,47.03 107.49,49.97 106.91,52.91 106.30,55.34 105.69,57.77 104.66,60.73 103.63,63.69 102.34,68.42 101.05,73.15 99.34,79.63 97.63,86.12 95.70,92.01 93.76,97.89 91.86,104.82 89.96,111.74 86.53,123.19 83.10,134.63 80.38,144.78 77.66,154.93 74.32,165.87 70.98,176.81 67.50,187.65 64.02,198.49 60.22,209.36 56.43,220.22 52.52,231.59 48.61,242.97 44.10,255.48 39.60,267.99 34.64,281.22 29.68,294.46 24.04,306.84 18.40,319.23 12.90,329.08 7.41,338.93 4.74,343.81 2.07,348.69 -0.30,352.15 -2.67,355.60 -5.36,357.30 -8.05,358.99 -10.85,358.71 -13.64,358.42 -16.22,356.04 -18.80,353.66 -20.16,351.57 -21.52,349.48 -23.49,346.39 -25.47,343.31 -28.27,339.15 -31.08,334.98 -33.67,330.69 -36.27,326.39 -38.37,322.83 -40.48,319.27 -43.85,315.77 -47.22,312.26 -49.57,309.21 -51.91,306.16 -52.64,303.86 -53.38,301.56 -53.54,298.56 -53.71,295.56 -53.80,292.97 -53.88,290.38 -53.60,287.22 -53.31,284.06 -52.75,281.60 -52.19,279.14 -51.68,276.51 -51.17,273.88 -50.58,270.81 -49.99,267.73 -49.46,264.51 -48.92,261.29 -48.68,257.12 -48.43,252.95 -47.93,247.98 -47.42,243.00 -46.57,237.13 -45.71,231.27 -44.36,223.96 -43.01,216.66 -40.83,206.92 -38.64,197.19 -35.18,185.97 -31.71,174.74 -27.63,164.06 -23.54,153.38 -19.63,144.23 -15.71,135.07 -13.00,129.49 -10.28,123.92 -8.33,118.60 -6.39,113.28 -4.73,108.77 -3.08,104.27 -1.75,100.17 -0.42,96.08 1.38,92.33 3.20,88.58 3.60,85.78 4.00,82.99 4.06,80.11 4.13,77.23 3.89,74.71 3.64,72.18 3.10,69.24 2.56,66.29 2.04,62.71 1.53,59.12 0.70,54.09 -0.13,49.05 -0.66,43.84 -1.20,38.63 -1.74,33.68 -2.28,28.72 -2.44,24.46 -2.60,20.20 -2.86,13.98 -3.13,7.75 -3.45,4.02 -3.77,0.29 -3.75,-0.16 -3.73,-0.62 -3.60,-1.05 -3.47,-1.49 -3.24,-1.89 -3.01,-2.28 -2.69,-2.61 -2.38,-2.94 -1.99,-3.18 -1.60,-3.42 -1.17,-3.56 -0.74,-3.71 -0.28,-3.74 0.16,-3.78 0.61,-3.70 1.06,-3.63 1.48,-3.45 1.90,-3.26 2.26,-2.99 2.63,-2.71 2.91,-2.36 3.20,-2.01 3.40,-1.59 3.59,-1.18 3.68,-0.73 3.77,-0.28 3.77,-0.29 L 3.77,-0.29 Z"></path></g></svg>