<svg version="1.1" xmlns="http://www.w3.org/2000/svg" viewBox="0 0 307 265" width="307" height="265" class="excalidraw-svg"><!-- svg-source:excalidraw --><metadata></metadata><defs><style class="style-fonts">
      </style></defs><rect x="0" y="0" width="307" height="265" fill="#ffffff"></rect><g stroke-linecap="round" transform="translate(10 10) rotate(0 143.5 122.5)"><path d="M102.71 4.98 C116.38 -0.6, 135.44 -0.94, 150.94 -0.33 C166.44 0.29, 181.25 3.8, 195.71 8.65 C210.18 13.49, 225.66 19.97, 237.71 28.76 C249.77 37.55, 260.45 49.74, 268.04 61.37 C275.62 72.99, 280.37 85.69, 283.21 98.5 C286.05 111.31, 287.03 125.14, 285.08 138.23 C283.13 151.32, 278.36 165.19, 271.51 177.04 C264.67 188.89, 254.92 199.87, 243.99 209.31 C233.06 218.76, 219.95 227.84, 205.95 233.71 C191.94 239.59, 175.31 243.17, 159.97 244.56 C144.63 245.95, 128.93 244.92, 113.91 242.07 C98.89 239.22, 83.15 234.32, 69.85 227.45 C56.55 220.58, 44.04 211.06, 34.1 200.84 C24.15 190.62, 15.7 178.5, 10.19 166.11 C4.68 153.73, 1.71 139.67, 1.02 126.54 C0.33 113.4, 1.59 99.89, 6.06 87.32 C10.52 74.76, 18.59 61.93, 27.82 51.16 C37.04 40.38, 46.8 30.94, 61.42 22.66 C76.03 14.37, 104.49 4.83, 115.49 1.45 C126.48 -1.94, 126.96 0.16, 127.37 2.35 M198.13 10.22 C212.66 13.38, 228.04 22, 239.95 30.6 C251.87 39.19, 262.14 50.31, 269.61 61.81 C277.09 73.3, 282.27 86.58, 284.81 99.55 C287.35 112.52, 287.43 126.36, 284.85 139.65 C282.27 152.94, 276.63 167.44, 269.32 179.29 C262.01 191.15, 251.86 201.53, 241 210.78 C230.14 220.03, 217.96 229.09, 204.16 234.81 C190.36 240.53, 173.79 243.99, 158.2 245.11 C142.61 246.24, 125.74 244.65, 110.61 241.55 C95.48 238.45, 80.67 233.49, 67.41 226.51 C54.15 219.53, 40.81 210.23, 31.04 199.67 C21.28 189.1, 14.16 175.59, 8.81 163.12 C3.45 150.64, -0.98 137.76, -1.09 124.83 C-1.19 111.91, 3.1 98.35, 8.16 85.57 C13.22 72.8, 20.3 59.2, 29.27 48.18 C38.24 37.17, 49.24 26.74, 61.98 19.46 C74.71 12.18, 90.37 7.8, 105.68 4.5 C120.98 1.21, 138.29 -0.95, 153.81 -0.32 C169.34 0.31, 191.53 6.33, 198.85 8.26 C206.17 10.2, 198.39 9.26, 197.74 11.29" stroke="none" stroke-width="0" fill="#b2f2bb"></path><path d="M169.84 1.43 C184.83 1.86, 200.35 8.86, 213.67 15.44 C227 22.03, 239.33 30.98, 249.8 40.94 C260.27 50.89, 270.19 63.03, 276.47 75.16 C282.75 87.3, 286.73 100.43, 287.49 113.74 C288.25 127.05, 285.4 142.06, 281.04 155.01 C276.68 167.97, 269.99 180.6, 261.34 191.47 C252.69 202.34, 241.52 212.41, 229.13 220.22 C216.73 228.03, 201.59 234.17, 186.97 238.34 C172.34 242.51, 156.89 245.33, 141.37 245.24 C125.85 245.15, 108.59 242.27, 93.85 237.81 C79.11 233.35, 65.06 226.76, 52.93 218.47 C40.8 210.18, 29.11 199.55, 21.08 188.07 C13.06 176.59, 8.36 162.48, 4.8 149.6 C1.25 136.73, -1.62 123.79, -0.23 110.83 C1.17 97.86, 6.6 84.04, 13.17 71.8 C19.73 59.56, 28.42 46.9, 39.16 37.39 C49.9 27.88, 63.83 20.65, 77.61 14.74 C91.39 8.83, 105.23 3.88, 121.85 1.9 C138.47 -0.07, 167.05 1.99, 177.32 2.87 C187.6 3.76, 183.94 5.1, 183.5 7.21 M113.23 3.24 C127.49 -1.53, 146.26 -0.8, 161.53 0.62 C176.8 2.04, 191.23 5.98, 204.84 11.78 C218.45 17.58, 232.21 26.13, 243.19 35.44 C254.18 44.74, 263.5 55.9, 270.76 67.59 C278.01 79.27, 284.58 92.2, 286.72 105.56 C288.86 118.91, 286.9 134.36, 283.57 147.71 C280.24 161.06, 274.58 174.27, 266.73 185.67 C258.88 197.07, 248.4 207.72, 236.47 216.1 C224.54 224.48, 209.6 231.11, 195.17 235.95 C180.75 240.78, 165.04 244.19, 149.93 245.1 C134.83 246.02, 119.21 245.09, 104.53 241.44 C89.85 237.79, 74.65 230.81, 61.86 223.2 C49.06 215.59, 36.82 206.51, 27.78 195.77 C18.75 185.02, 12.06 171.63, 7.65 158.73 C3.23 145.83, 1.11 131.9, 1.3 118.35 C1.49 104.81, 3.72 89.73, 8.81 77.46 C13.9 65.19, 22.02 54.55, 31.84 44.74 C41.66 34.94, 54 25.64, 67.72 18.62 C81.45 11.59, 106.45 4.76, 114.18 2.6 C121.91 0.43, 113.82 3.62, 114.12 5.64" stroke="#1e1e1e" stroke-width="2" fill="none"></path></g></svg>