<svg version="1.1" xmlns="http://www.w3.org/2000/svg" viewBox="0 0 1040.5313575377213 683.9317874019459" width="1040.5313575377213" height="683.9317874019459" class="excalidraw-svg"><!-- svg-source:excalidraw --><metadata></metadata><defs><style class="style-fonts">
      </style></defs><rect x="0" y="0" width="1040.5313575377213" height="683.9317874019459" fill="#ffffff"></rect><g stroke-linecap="round"><g transform="translate(285.4127728535773 214) rotate(0 79 -88.5)"><path d="M0 0 C40.75 -45.18, 82.05 -93.25, 158 -177 M0 0 C34.29 -35.73, 66.19 -73.85, 158 -177" stroke="#e03131" stroke-width="2" fill="none"></path></g><g transform="translate(285.4127728535773 214) rotate(0 79 -88.5)"><path d="M148.83 -153.74 C149.64 -158.41, 152.07 -166.68, 158 -177 M148.83 -153.74 C151.51 -157.67, 152.14 -163.94, 158 -177" stroke="#e03131" stroke-width="2" fill="none"></path></g><g transform="translate(285.4127728535773 214) rotate(0 79 -88.5)"><path d="M136.03 -165.08 C140.1 -166.8, 145.88 -172.11, 158 -177 M136.03 -165.08 C141.32 -166.59, 144.62 -170.5, 158 -177" stroke="#e03131" stroke-width="2" fill="none"></path></g></g><mask></mask><g stroke-linecap="round"><g transform="translate(33.151016882426916 243.30313326937608) rotate(0 79 -88.5)"><path d="M0 0 C58.65 -61.3, 114.93 -126.39, 158 -177 M0 0 C38.55 -42.33, 76.42 -85.63, 158 -177" stroke="#1971c2" stroke-width="2" fill="none"></path></g><g transform="translate(33.151016882426916 243.30313326937608) rotate(0 79 -88.5)"><path d="M148.76 -153.77 C152.47 -160.29, 154.87 -170.07, 158 -177 M148.76 -153.77 C150.99 -158.94, 153.07 -165.41, 158 -177" stroke="#1971c2" stroke-width="2" fill="none"></path></g><g transform="translate(33.151016882426916 243.30313326937608) rotate(0 79 -88.5)"><path d="M135.99 -165.14 C144.2 -167.44, 151.22 -173.12, 158 -177 M135.99 -165.14 C141.25 -167.59, 146.39 -171.33, 158 -177" stroke="#1971c2" stroke-width="2" fill="none"></path></g></g><mask></mask><g stroke-linecap="round"><g transform="translate(355.4854828455635 673.9317874019459) rotate(0 79 -88.5)"><path d="M0 0 C48.69 -55.71, 99.37 -108.51, 158 -177 M0 0 C53.29 -58.57, 106.4 -119.21, 158 -177" stroke="#e03131" stroke-width="2" fill="none"></path></g><g transform="translate(355.4854828455635 673.9317874019459) rotate(0 79 -88.5)"><path d="M148.78 -153.76 C150.22 -162.01, 155.09 -166.74, 158 -177 M148.78 -153.76 C151.78 -160.63, 154.01 -168.89, 158 -177" stroke="#e03131" stroke-width="2" fill="none"></path></g><g transform="translate(355.4854828455635 673.9317874019459) rotate(0 79 -88.5)"><path d="M136 -165.12 C141.32 -169.85, 150.15 -171.05, 158 -177 M136 -165.12 C143.4 -168.03, 149.99 -172.41, 158 -177" stroke="#e03131" stroke-width="2" fill="none"></path></g></g><mask></mask><g stroke-linecap="round"><g transform="translate(495.4127728535773 187) rotate(0 79 -88.5)"><path d="M0 0 C52.45 -55.34, 102.15 -112.36, 158 -177 M0 0 C57.85 -67.74, 118.48 -134.49, 158 -177" stroke="#2f9e44" stroke-width="2" fill="none"></path></g><g transform="translate(495.4127728535773 187) rotate(0 79 -88.5)"><path d="M148.39 -153.92 C153.48 -160.6, 155.76 -168.67, 158 -177 M148.39 -153.92 C151.07 -162.51, 156.11 -171.38, 158 -177" stroke="#2f9e44" stroke-width="2" fill="none"></path></g><g transform="translate(495.4127728535773 187) rotate(0 79 -88.5)"><path d="M135.8 -165.49 C144.86 -168.43, 151.16 -172.82, 158 -177 M135.8 -165.49 C143.29 -169.85, 153.07 -174.37, 158 -177" stroke="#2f9e44" stroke-width="2" fill="none"></path></g></g><mask></mask><g stroke-linecap="round"><g transform="translate(10 538.6375992325127) rotate(0 79 -88.5)"><path d="M0 0 C36.5 -43.57, 76.2 -88.47, 158 -177 M0 0 C40.75 -42.79, 79.48 -86.68, 158 -177" stroke="#f08c00" stroke-width="2" fill="none"></path></g><g transform="translate(10 538.6375992325127) rotate(0 79 -88.5)"><path d="M149 -153.68 C149.2 -158.47, 152.75 -166.18, 158 -177 M149 -153.68 C152.07 -158.9, 153.87 -164.79, 158 -177" stroke="#f08c00" stroke-width="2" fill="none"></path></g><g transform="translate(10 538.6375992325127) rotate(0 79 -88.5)"><path d="M136.11 -164.92 C139.5 -167.08, 146.19 -172.05, 158 -177 M136.11 -164.92 C142.3 -167.3, 147.28 -170.41, 158 -177" stroke="#f08c00" stroke-width="2" fill="none"></path></g></g><mask></mask><g stroke-linecap="round"><g transform="translate(872.5313575377213 411.232671974356) rotate(0 79 -88.5)"><path d="M0 0 C30.45 -38.17, 65.14 -71.71, 158 -177 M0 0 C60.4 -68.33, 120.7 -135.01, 158 -177" stroke="#f08c00" stroke-width="2" fill="none"></path></g><g transform="translate(872.5313575377213 411.232671974356) rotate(0 79 -88.5)"><path d="M148.72 -153.78 C148.76 -159.86, 153.81 -161.78, 158 -177 M148.72 -153.78 C152.17 -163.37, 156.74 -172.28, 158 -177" stroke="#f08c00" stroke-width="2" fill="none"></path></g><g transform="translate(872.5313575377213 411.232671974356) rotate(0 79 -88.5)"><path d="M135.97 -165.18 C138.59 -169.06, 146.23 -168.67, 158 -177 M135.97 -165.18 C144.12 -170.59, 153.48 -175.22, 158 -177" stroke="#f08c00" stroke-width="2" fill="none"></path></g></g><mask></mask><g stroke-linecap="round"><g transform="translate(560.4127728535773 560) rotate(0 79 -88.5)"><path d="M0 0 C64.36 -69.21, 125.98 -139.08, 158 -177 M0 0 C54.34 -60.01, 109.61 -120.87, 158 -177" stroke="#2f9e44" stroke-width="2" fill="none"></path></g><g transform="translate(560.4127728535773 560) rotate(0 79 -88.5)"><path d="M148.96 -153.69 C153.93 -162.1, 156.32 -171.01, 158 -177 M148.96 -153.69 C151.71 -161.25, 155.85 -169.18, 158 -177" stroke="#2f9e44" stroke-width="2" fill="none"></path></g><g transform="translate(560.4127728535773 560) rotate(0 79 -88.5)"><path d="M136.09 -164.95 C146.11 -168.88, 153.6 -173.33, 158 -177 M136.09 -164.95 C143.25 -168.58, 151.83 -172.63, 158 -177" stroke="#2f9e44" stroke-width="2" fill="none"></path></g></g><mask></mask><g stroke-linecap="round"><g transform="translate(300.4127728535773 575) rotate(0 79 -88.5)"><path d="M0 0 C34.69 -41.87, 68.94 -79.58, 158 -177 M0 0 C51.59 -55.95, 102.1 -113.37, 158 -177" stroke="#2f9e44" stroke-width="2" fill="none"></path></g><g transform="translate(300.4127728535773 575) rotate(0 79 -88.5)"><path d="M148.9 -153.71 C151.56 -160.32, 152.44 -163.44, 158 -177 M148.9 -153.71 C152.45 -160.23, 155.81 -169.15, 158 -177" stroke="#2f9e44" stroke-width="2" fill="none"></path></g><g transform="translate(300.4127728535773 575) rotate(0 79 -88.5)"><path d="M136.06 -165.01 C141.67 -169.23, 145.42 -169.83, 158 -177 M136.06 -165.01 C143.6 -168, 151.04 -173.34, 158 -177" stroke="#2f9e44" stroke-width="2" fill="none"></path></g></g><mask></mask></svg>